<?xml version="1.0" standalone="no"?>
<!DOCTYPE svg PUBLIC "-//W3C//DTD SVG 20010904//EN"
 "http://www.w3.org/TR/2001/REC-SVG-20010904/DTD/svg10.dtd">
<svg version="1.0" xmlns="http://www.w3.org/2000/svg"
 width="16.000000pt" height="16.000000pt" viewBox="0 0 16.000000 16.000000"
 preserveAspectRatio="xMidYMid meet">

<g transform="translate(0.000000,16.000000) scale(0.100000,-0.100000)"
fill="#000000" stroke="none">
<path d="M12 148 c-16 -16 -16 -120 0 -136 16 -16 120 -16 136 0 16 16 16 120
0 136 -16 16 -120 16 -136 0z m68 -23 c0 -10 10 -15 30 -15 20 0 30 -5 30 -15
0 -10 -10 -15 -30 -15 -27 0 -30 -3 -30 -30 0 -20 -5 -30 -15 -30 -10 0 -15
10 -15 30 0 20 -5 30 -15 30 -8 0 -15 7 -15 15 0 8 7 15 15 15 8 0 15 7 15 15
0 8 7 15 15 15 8 0 15 -7 15 -15z"/>
</g>
</svg>
